<?xml version="1.0" standalone="no"?>
<!DOCTYPE svg PUBLIC "-//W3C//DTD SVG 20010904//EN"
 "http://www.w3.org/TR/2001/REC-SVG-20010904/DTD/svg10.dtd">
<svg version="1.0" xmlns="http://www.w3.org/2000/svg"
 width="712.000000pt" height="712.000000pt" viewBox="0 0 712.000000 712.000000"
 preserveAspectRatio="xMidYMid meet">
<metadata>
Created by potrace 1.14, written by Peter Selinger 2001-2017
</metadata>
<g transform="translate(0.000000,712.000000) scale(0.100000,-0.100000)"
fill="#000000" stroke="none">
<path d="M2737 7114 c-1 -1 -56 -4 -122 -8 -66 -3 -131 -8 -145 -10 -14 -2
-47 -7 -73 -11 -27 -4 -58 -8 -70 -11 -12 -2 -39 -6 -62 -10 -67 -10 -295 -71
-390 -104 -288 -102 -545 -241 -783 -425 -118 -91 -366 -328 -438 -419 -21
-27 -51 -63 -65 -80 -72 -85 -224 -328 -297 -473 -120 -240 -236 -614 -258
-834 -3 -35 -8 -67 -10 -70 -13 -22 -18 -316 -18 -1099 0 -803 4 -1033 19
-1109 2 -13 7 -47 10 -76 18 -149 94 -435 158 -595 l34 -85 1163 0 1162 0 19
24 c35 43 19 92 -64 196 -7 9 -132 184 -593 830 -79 110 -147 205 -151 210 -5
6 -29 39 -52 74 -24 35 -50 71 -57 80 -7 9 -63 86 -123 171 -60 85 -114 160
-118 165 -5 6 -24 32 -43 58 -18 26 -43 50 -54 52 -12 3 -107 6 -213 7 -169 3
-194 5 -210 21 -16 16 -18 40 -20 208 -1 104 2 201 7 214 16 41 40 46 233 47
100 0 193 4 207 9 14 5 43 35 65 67 21 31 43 62 48 67 5 6 29 40 55 77 26 37
108 151 183 255 74 103 301 420 504 703 203 283 373 520 377 525 5 6 76 105
158 220 82 116 153 215 158 221 5 6 31 42 58 80 26 38 86 121 131 184 46 63
120 166 164 227 86 121 111 138 158 112 21 -12 457 -608 462 -631 8 -42 5 -47
-104 -193 -102 -135 -111 -144 -148 -145 -35 0 -48 12 -120 110 -34 47 -67 88
-73 92 -18 12 -71 9 -88 -4 -13 -11 -502 -688 -612 -848 -17 -24 -39 -53 -48
-64 -10 -11 -18 -23 -18 -27 0 -4 -6 -14 -13 -21 -7 -7 -40 -51 -73 -98 -33
-47 -199 -278 -369 -515 -452 -630 -445 -620 -445 -650 0 -19 39 -83 128 -208
70 -99 141 -195 158 -214 36 -38 81 -44 110 -15 10 9 90 114 178 232 88 118
223 301 301 405 294 394 661 889 765 1030 41 55 78 104 82 110 5 5 119 159
253 340 307 414 306 412 330 419 11 3 355 6 765 6 1702 2 1810 2 1810 12 0 24
-176 234 -305 364 -238 240 -439 386 -740 537 -263 133 -595 235 -850 263 -27
3 -56 7 -63 9 -37 12 -348 18 -1090 19 -453 0 -824 0 -825 0z"/>
<path d="M4505 5422 c-28 -6 -55 -41 -55 -71 0 -15 25 -60 60 -111 33 -47 68
-96 78 -110 9 -14 40 -56 68 -95 28 -38 66 -92 86 -120 19 -27 138 -194 264
-370 126 -176 236 -330 244 -342 8 -11 94 -131 190 -264 96 -134 187 -262 203
-285 15 -23 39 -53 53 -68 l27 -26 236 0 c246 -1 256 -2 278 -45 7 -12 11 -93
11 -200 -1 -186 -8 -225 -43 -239 -9 -3 -119 -6 -244 -6 -187 0 -230 -3 -248
-15 -19 -14 -85 -100 -205 -270 -58 -83 -648 -907 -680 -950 -16 -22 -92 -128
-168 -235 -77 -107 -143 -199 -147 -205 -5 -5 -154 -215 -333 -464 -462 -646
-438 -615 -482 -619 -33 -3 -40 1 -80 51 -23 30 -51 65 -60 78 -9 13 -85 116
-169 229 -209 282 -203 273 -191 308 12 34 185 271 212 290 31 22 68 24 87 4
27 -28 56 -63 83 -102 13 -19 30 -41 36 -47 7 -7 14 -17 16 -23 6 -18 64 -29
89 -16 13 6 244 319 517 701 271 380 616 861 765 1070 324 451 310 430 305
469 -5 38 -284 432 -313 443 -61 21 -81 5 -220 -186 -49 -68 -127 -174 -172
-235 -104 -140 -59 -79 -470 -635 -194 -262 -361 -487 -370 -500 -51 -68 -406
-547 -559 -754 -97 -131 -186 -242 -198 -246 -11 -5 -574 -8 -1249 -7 -676 1
-1234 -2 -1240 -6 -20 -12 152 -226 309 -382 371 -370 833 -626 1339 -743 33
-7 217 -41 260 -47 22 -3 85 -9 140 -13 131 -9 1875 -9 1985 0 164 14 257 27
368 53 37 9 78 18 92 20 141 24 522 177 680 273 19 11 42 24 50 28 55 25 296
195 372 261 273 238 446 443 620 732 220 365 365 853 378 1270 2 52 3 478 4
945 0 738 -4 947 -19 1065 -10 87 -16 127 -20 140 -2 8 -7 31 -10 50 -3 19
-11 55 -16 80 -6 25 -12 52 -14 60 -19 90 -85 296 -125 387 l-22 52 -1181 -1
c-650 -1 -1191 -3 -1202 -6z"/>
<path d="M3990 5088 c-16 -6 -82 -85 -182 -221 -87 -117 -234 -315 -328 -442
-94 -126 -176 -237 -183 -245 -7 -8 -28 -37 -47 -65 -19 -27 -37 -52 -40 -55
-3 -3 -56 -72 -117 -155 -128 -173 -295 -398 -323 -435 -10 -14 -52 -70 -93
-125 -40 -55 -121 -164 -179 -241 -125 -166 -130 -176 -124 -209 3 -15 94
-151 203 -303 109 -152 205 -286 213 -298 46 -68 182 -254 189 -258 18 -12 59
-13 78 -2 19 10 83 94 411 536 218 296 473 638 732 988 140 189 276 373 303
410 26 37 53 74 60 82 74 93 101 138 101 170 0 19 -7 44 -17 55 -9 11 -129
178 -266 370 -137 193 -265 371 -285 396 -37 49 -65 61 -106 47z"/>
</g>
</svg>
