<svg width="16" height="16" viewBox="0 0 16 16" fill="#BFBFBF" xmlns="http://www.w3.org/2000/svg">
<path d="M11.1211 8.55478C11.0566 8.85403 10.9528 9.14344 10.8125 9.41553C10.663 9.68439 10.4796 9.93293 10.2667 10.155C10.0446 10.3678 9.79615 10.5512 9.52737 10.7008C9.25503 10.8406 8.9657 10.9445 8.66662 11.0099C8.36316 11.0629 8.0543 11.078 7.74712 11.0549C7.44269 11.0193 7.14416 10.9443 6.859 10.8319C6.57525 10.7116 6.30828 10.5551 6.06475 10.3663C5.83021 10.1669 5.6223 9.9382 5.44612 9.68578C5.28064 9.42793 5.14913 9.1498 5.05487 8.85828C4.97172 8.56184 4.92636 8.25609 4.91987 7.94828H6.9875C6.99734 8.05132 7.01565 8.15337 7.04225 8.2534C7.07749 8.35039 7.12137 8.44402 7.17337 8.53315C7.23764 8.61733 7.30899 8.69587 7.38662 8.7679C7.47062 8.8298 7.56037 8.88351 7.65462 8.92828C7.75128 8.96428 7.85165 8.98944 7.95387 9.00328C8.058 9.01073 8.16259 9.00876 8.26637 8.9974C8.36514 8.97163 8.46137 8.93694 8.55387 8.89378C8.64411 8.83575 8.7294 8.77036 8.80887 8.69828C8.881 8.61904 8.94643 8.53396 9.00449 8.4439C9.04773 8.35074 9.08242 8.25384 9.10812 8.1544C9.12236 8.04875 9.12763 7.94207 9.12387 7.83553C9.10864 7.73328 9.08305 7.63285 9.04749 7.53578C9.00285 7.4415 8.94927 7.35171 8.88749 7.26765C8.81546 7.19002 8.73692 7.11868 8.65274 7.0544C8.56388 7.00164 8.47006 6.95772 8.37262 6.92328C8.27063 6.89807 8.16651 6.88237 8.06162 6.8764H0V4.81641H8.05374C8.36151 4.82189 8.66727 4.86727 8.96337 4.95141C9.25491 5.04562 9.53305 5.17712 9.79087 5.34266C10.0434 5.5186 10.2722 5.72635 10.4716 5.96078C10.6617 6.20033 10.8201 6.46332 10.9431 6.74328C11.0553 7.02714 11.1302 7.32431 11.1661 7.6274C11.19 7.93719 11.1749 8.24876 11.1211 8.55478V8.55478Z" fill="#55E56F"/>
<path d="M13.4686 9.01825C13.3592 9.55061 13.1755 10.0649 12.9229 10.5461C12.6618 11.0214 12.3373 11.459 11.9584 11.847C11.5699 12.2253 11.1324 12.5496 10.6575 12.8114C10.176 13.0632 9.66181 13.2469 9.12974 13.3572C8.59725 13.4571 8.05363 13.4841 7.51387 13.4374C6.97677 13.3791 6.45019 13.2475 5.94887 13.0461C5.44998 12.834 4.98264 12.5542 4.56 12.2147C4.14526 11.865 3.77947 11.461 3.4725 11.0136C3.1747 10.5596 2.94155 10.0664 2.77975 9.54812C2.6286 9.02595 2.549 8.48569 2.54312 7.94212H4.56387C4.56962 8.28566 4.62025 8.62697 4.7145 8.95737C4.81814 9.28322 4.96485 9.59376 5.15075 9.88074C5.34715 10.1631 5.57924 10.4189 5.84125 10.6417C6.10926 10.8555 6.40468 11.0325 6.71962 11.1679C7.0377 11.2945 7.37128 11.3781 7.71149 11.4164C8.05393 11.4435 8.39843 11.4264 8.73649 11.3655C9.07154 11.2952 9.39538 11.1794 9.69899 11.0212C9.99898 10.8545 10.2758 10.6493 10.5225 10.4106C10.7614 10.1623 10.9672 9.88413 11.135 9.58312C11.2915 9.2788 11.4073 8.95518 11.4792 8.62062C11.5395 8.28248 11.556 7.93797 11.5281 7.59562C11.4908 7.25524 11.4073 6.92154 11.2797 6.60375C11.1452 6.29021 10.9703 5.99559 10.7594 5.72737C10.5365 5.46595 10.2807 5.23453 9.99837 5.03887C9.71138 4.8531 9.40084 4.70655 9.07499 4.60312C8.74456 4.50908 8.40325 4.45866 8.05974 4.45312H0V2.42188H8.05374C8.5962 2.42776 9.13527 2.50809 9.65587 2.66062C10.1745 2.8227 10.6683 3.05574 11.1231 3.35312C11.5705 3.66003 11.9745 4.02582 12.3242 4.44062C12.664 4.86346 12.9444 5.33074 13.1576 5.8295C13.358 6.33113 13.4896 6.85757 13.5489 7.3945C13.5963 7.93687 13.5693 8.48318 13.4686 9.01825V9.01825Z" fill="#55E56F"/>
<path d="M15.8454 9.49162C15.6893 10.2584 15.4258 10.9993 15.0625 11.6924C14.6899 12.3779 14.2224 13.0075 13.674 13.5625C13.1181 14.11 12.4887 14.5774 11.8039 14.9514C11.1108 15.3146 10.3699 15.578 9.60312 15.7339C8.83748 15.8795 8.05519 15.9171 7.27912 15.8454C6.50095 15.7645 5.73821 15.5735 5.01375 15.2781C4.29386 14.9765 3.62013 14.5748 3.0125 14.0849C2.41429 13.5848 1.88769 13.0049 1.4475 12.3614C1.01769 11.7083 0.682488 10.9977 0.451875 10.2506C0.230379 9.50164 0.115129 8.72527 0.1095 7.94424H2.1695C2.17586 8.52243 2.2614 9.09703 2.42375 9.65199C2.59609 10.2056 2.845 10.7323 3.16325 11.217C3.48894 11.6944 3.87857 12.1249 4.32125 12.4964C4.77217 12.8582 5.2704 13.1568 5.80212 13.3839C6.33904 13.5999 6.90319 13.7407 7.47862 13.8025C8.05176 13.8514 8.62889 13.8224 9.19424 13.7164C9.76163 13.5981 10.3095 13.4006 10.8219 13.1296C11.3288 12.8517 11.7956 12.5062 12.2094 12.1025C12.6155 11.6906 12.9637 11.2253 13.2442 10.7195C13.5155 10.2072 13.7133 9.6593 13.8317 9.09187C13.9378 8.52389 13.9661 7.94411 13.9159 7.36849C13.8547 6.79317 13.7145 6.22902 13.4992 5.692C13.2722 5.16027 12.9736 4.66204 12.6117 4.21112C12.2398 3.76829 11.8094 3.37805 11.3324 3.05112C10.3634 2.4059 9.22563 2.06087 8.06149 2.05925H0V0H8.05374C8.83741 0.00487297 9.61648 0.120131 10.368 0.342375C11.1151 0.573633 11.8258 0.909508 12.4787 1.34C13.1236 1.77852 13.7037 2.30532 14.2022 2.905C14.6937 3.51188 15.0974 4.18489 15.4014 4.90425C15.6965 5.62944 15.8875 6.39276 15.9686 7.17149C16.0361 7.94683 15.9946 8.7278 15.8454 9.49162V9.49162Z" fill="#55E56F"/>
</svg>
