<svg width="117" height="23" viewBox="0 0 117 23" fill="none" xmlns="http://www.w3.org/2000/svg">
<g clip-path="url(#clip0_108:59)">
<path d="M15.8938 12.2078C15.801 12.6349 15.6522 13.0478 15.4513 13.4361C15.2393 13.8192 14.9791 14.1737 14.6769 14.4909C14.3595 14.7945 14.0044 15.0562 13.6203 15.2696C13.2313 15.4699 12.8177 15.6184 12.39 15.7114C11.9567 15.7873 11.5155 15.8089 11.0768 15.7755C10.6415 15.7246 10.2145 15.6177 9.8067 15.4574C9.40129 15.2862 9.01975 15.0635 8.67158 14.7947C8.33597 14.5099 8.0385 14.1833 7.7865 13.8227C7.55153 13.4547 7.36557 13.0578 7.23333 12.6419C7.11418 12.2192 7.04913 11.7831 7.03971 11.3441H9.98593C10.0001 11.4932 10.0264 11.641 10.0645 11.7859C10.1146 11.9242 10.1772 12.0576 10.2515 12.1846C10.3433 12.3038 10.4455 12.4147 10.5568 12.516C10.6764 12.6048 10.8047 12.6814 10.9396 12.7446C11.0772 12.7979 11.2205 12.8349 11.3667 12.8551C11.5159 12.8663 11.6659 12.8637 11.8147 12.8474C11.9558 12.8108 12.0932 12.7612 12.2252 12.6993C12.354 12.6163 12.4757 12.5229 12.5892 12.4199C12.692 12.307 12.7852 12.1858 12.868 12.0576C12.9298 11.9247 12.9794 11.7864 13.0162 11.6445C13.0367 11.4937 13.0444 11.3415 13.0395 11.1894C13.0171 11.0436 12.98 10.9004 12.9288 10.762C12.8645 10.6278 12.7879 10.4998 12.6998 10.3798C12.5977 10.2696 12.4867 10.168 12.3679 10.0761C12.2407 10.0009 12.1066 9.93803 11.9674 9.8883C11.8223 9.85257 11.6741 9.83038 11.5249 9.82203H0V6.87402H11.5061C11.9471 6.88185 12.3853 6.9472 12.8093 7.06842C13.2257 7.20095 13.6232 7.38657 13.992 7.62069C14.3532 7.87224 14.6805 8.16923 14.9656 8.50432C15.2369 8.84639 15.4633 9.22165 15.6394 9.621C15.7988 10.0263 15.9058 10.4501 15.958 10.8824C15.9917 11.3251 15.9701 11.7704 15.8938 12.2078Z" fill="#55E56F"/>
<path d="M19.2505 12.8698C19.0959 13.6288 18.8352 14.3624 18.4761 15.049C18.1026 15.7272 17.6389 16.3518 17.0976 16.9057C16.5422 17.4449 15.9171 17.9073 15.2389 18.2809C14.5508 18.6407 13.8157 18.9028 13.0549 19.0596C12.2939 19.2011 11.5171 19.2383 10.746 19.17C9.97853 19.0889 9.22584 18.9031 8.50895 18.6178C7.7934 18.315 7.12295 17.9155 6.51641 17.4304C5.92562 16.9307 5.40468 16.3542 4.96752 15.7161C4.54232 15.0683 4.20944 14.3646 3.97844 13.6253C3.76264 12.8804 3.64876 12.1098 3.6399 11.3345H6.52747C6.53599 11.8245 6.60851 12.3112 6.74321 12.7825C6.89128 13.2474 7.10075 13.6906 7.36609 14.1002C7.647 14.5029 7.97869 14.8678 8.35295 15.186C8.73627 15.4909 9.15855 15.7435 9.60866 15.9371C10.0634 16.1171 10.5399 16.2363 11.0259 16.2916C11.5153 16.3304 12.0076 16.3059 12.4907 16.2187C12.9695 16.1186 13.4323 15.9532 13.8659 15.7272C14.2949 15.49 14.6907 15.1973 15.0431 14.8568C15.3848 14.5027 15.6789 14.1058 15.9182 13.6761C16.1419 13.242 16.3074 12.7803 16.4105 12.3031C16.4967 11.8207 16.5201 11.3292 16.4802 10.8407C16.4271 10.3548 16.3076 9.87834 16.1251 9.42471C15.9315 8.97702 15.6805 8.55635 15.3783 8.17327C15.0596 7.80065 14.694 7.47062 14.2907 7.19134C13.8804 6.9261 13.4366 6.7166 12.9709 6.56838C12.4988 6.43428 12.0112 6.36224 11.5204 6.3541H0V3.45801H11.5061C12.2815 3.46596 13.0521 3.58044 13.7962 3.7982C14.5395 4.03114 15.2469 4.36568 15.8983 4.79229C16.5376 5.22841 17.1151 5.74854 17.6153 6.33864C18.1013 6.94192 18.5026 7.60858 18.808 8.32018C19.0926 9.03588 19.2787 9.78681 19.3612 10.5524C19.4307 11.3263 19.3934 12.106 19.2505 12.8698Z" fill="#55E56F"/>
<path d="M22.6448 13.5427C22.4217 14.6353 22.0452 15.691 21.5263 16.6785C20.994 17.657 20.3258 18.5554 19.5415 19.3471C18.747 20.1282 17.8473 20.7952 16.8685 21.3286C15.8784 21.8469 14.8199 22.2229 13.7243 22.4453C12.6308 22.653 11.5136 22.7065 10.4052 22.6043C9.29276 22.4894 8.20237 22.2168 7.16694 21.7947C6.13814 21.3646 5.17533 20.7915 4.30703 20.0926C3.45217 19.38 2.69912 18.5539 2.06888 17.6372C1.45486 16.7051 0.975867 15.6911 0.646109 14.6252C0.329523 13.5566 0.164911 12.449 0.157102 11.3347H3.09778C3.10739 12.1597 3.22985 12.9795 3.46177 13.7714C3.70775 14.5611 4.0634 15.3125 4.51834 16.0036C4.98518 16.6852 5.54357 17.2995 6.17787 17.8294C6.823 18.3467 7.53626 18.7729 8.29764 19.0963C9.06298 19.404 9.8671 19.6051 10.6874 19.6939C11.5067 19.7636 12.3318 19.7224 13.1401 19.5713C13.95 19.402 14.732 19.1202 15.4635 18.734C16.1876 18.3375 16.8542 17.8444 17.4449 17.2683C18.0256 16.681 18.5233 16.0173 18.9241 15.2956C19.3115 14.5656 19.5938 13.7848 19.7628 12.9761C19.9145 12.1658 19.9551 11.3386 19.8833 10.5174C19.7959 9.69641 19.5956 8.89137 19.2881 8.12497C18.9631 7.36655 18.5358 6.65602 18.018 6.01309C17.4873 5.38026 16.8723 4.82283 16.1903 4.35629C14.8055 3.43598 13.1796 2.94382 11.516 2.94138H0V0H11.5061C12.6262 0.00670081 13.7398 0.171054 14.814 0.488205C15.8816 0.818375 16.897 1.29771 17.83 1.91195C18.7516 2.53754 19.5806 3.28935 20.2927 4.14532C20.9956 5.01067 21.5725 5.97079 22.0064 6.99723C22.4286 8.03194 22.7016 9.12118 22.8174 10.2324C22.915 11.3385 22.8569 12.4527 22.6448 13.5427Z" fill="#55E56F"/>
<path d="M51.8502 0.552734L46.0009 20.5172H43.401L39.1825 5.70208L34.9098 20.5172H32.3784L26.5845 0.552734H29.5395L33.7713 15.7125L38.0584 0.552734H40.3265L44.6136 15.7125L48.9007 0.552734H51.8502Z" fill="#55E56F"/>
<path d="M55.8202 20.7923C54.9753 20.8083 54.1372 20.6386 53.3652 20.2952C52.6784 19.9878 52.095 19.4893 51.6847 18.8593C51.2783 18.2334 51.0754 17.4787 51.0762 16.595C51.0762 15.0119 51.6386 13.8289 52.7634 13.0462C53.8882 12.2634 55.6816 11.8496 58.1436 11.8047L60.4946 11.7351V10.7001C60.4946 9.88055 60.2501 9.23624 59.761 8.76718C59.272 8.29812 58.5208 8.06764 57.5074 8.07574C56.7922 8.06277 56.0869 8.24453 55.4673 8.6015C54.8721 8.95053 54.4826 9.52563 54.299 10.3268H51.7267C51.782 9.37909 52.056 8.58051 52.5487 7.93105C53.0757 7.25813 53.7832 6.74834 54.5888 6.46091C55.4555 6.12955 56.473 5.96387 57.6413 5.96387C58.9416 5.96387 60.0111 6.14096 60.8497 6.49515C61.6883 6.84934 62.3152 7.36736 62.7305 8.04923C63.1406 8.72962 63.346 9.55803 63.3467 10.5344V20.5161H60.8397L60.6052 17.8929C60.0697 18.9886 59.3941 19.7455 58.5784 20.1638C57.723 20.5919 56.7769 20.8075 55.8202 20.7923ZM56.7462 18.7345C57.2028 18.7332 57.6556 18.6517 58.0838 18.4937C58.5171 18.3374 58.923 18.1138 59.2864 17.831C59.6282 17.5694 59.9208 17.2493 60.1505 16.8855C60.3585 16.5631 60.4758 16.1907 60.4901 15.8075V13.4471L58.554 13.488C57.5671 13.4975 56.7304 13.5992 56.0437 13.7928C55.357 13.9865 54.833 14.2854 54.4716 14.6897C54.1072 15.0947 53.925 15.633 53.925 16.3045C53.925 17.0689 54.1924 17.665 54.7271 18.0928C55.2619 18.5206 55.9349 18.7345 56.7462 18.7345Z" fill="#55E56F"/>
<path d="M66.1079 20.5162V6.24003H68.9435V9.16705C69.1538 8.51805 69.4949 7.91888 69.9458 7.40642C70.3608 6.94202 70.873 6.57437 71.4461 6.3295C72.019 6.08595 72.6356 5.96155 73.2583 5.9639C73.4432 5.96376 73.6279 5.9752 73.8114 5.99814C73.9557 6.01255 74.0962 6.05258 74.2263 6.11633V8.9594C74.0788 8.89764 73.9223 8.86033 73.7627 8.84895C73.5736 8.83128 73.4098 8.81692 73.2715 8.80808C72.6983 8.75852 72.1208 8.79088 71.5567 8.90418C71.0797 8.99823 70.6262 9.18595 70.2224 9.45644C69.8533 9.71115 69.5586 10.0592 69.3683 10.4649C69.1595 10.9241 69.0567 11.4242 69.0674 11.9284V20.5162H66.1079Z" fill="#55E56F"/>
<path d="M80.5597 20.7929C78.6789 20.7929 77.199 20.1508 76.1199 18.8666C75.0409 17.5824 74.5017 15.7301 74.5024 13.3097C74.5024 11.8274 74.7189 10.5365 75.1519 9.43716C75.5848 8.33778 76.2324 7.48397 77.0946 6.87574C77.9576 6.26824 79.0248 5.96449 80.2964 5.96449C80.8788 5.95589 81.4591 6.03483 82.0179 6.19866C82.4861 6.33969 82.9328 6.54408 83.3455 6.80615C83.9804 7.20929 84.5093 7.75849 84.8878 8.40773V0H87.8616V20.5168H85.6489L85.317 17.5897C85.1956 17.9454 85.038 18.2878 84.8468 18.6114C84.6147 19.0039 84.3228 19.3579 83.9817 19.6607C83.5743 20.0178 83.1028 20.2944 82.5921 20.4759C81.939 20.7018 81.2507 20.8092 80.5597 20.7929ZM81.1262 18.5695C82.4538 18.5695 83.4126 18.153 84.0027 17.3202C84.5927 16.4874 84.8878 15.1182 84.8878 13.2125C84.8789 12.1366 84.7454 11.2258 84.4873 10.4798C84.2291 9.73391 83.8301 9.16986 83.2902 8.78769C82.7518 8.40626 82.0444 8.21554 81.1682 8.21554C80.0707 8.21554 79.1764 8.60875 78.4853 9.39518C77.7942 10.1816 77.4472 11.454 77.4442 13.2125C77.4442 14.9429 77.7599 16.2683 78.3913 17.1888C79.0226 18.1092 79.9343 18.5695 81.1262 18.5695Z" fill="#55E56F"/>
<path d="M92.7287 14.069C92.7168 14.8557 92.8615 15.6371 93.1547 16.3675C93.4133 17.0157 93.8583 17.5729 94.4336 17.9691C95.006 18.3601 95.7159 18.5556 96.5633 18.5556C97.4108 18.5556 98.1462 18.3623 98.7694 17.9757C99.078 17.7835 99.3451 17.5318 99.5552 17.2354C99.7653 16.939 99.9141 16.6038 99.993 16.2493H102.731C102.59 17.1729 102.184 18.036 101.563 18.7345C100.953 19.4136 100.193 19.9409 99.3425 20.2742C98.4762 20.6197 97.5515 20.7956 96.6187 20.7923C95.2638 20.7923 94.0696 20.4999 93.0363 19.9153C92.0049 19.332 91.1663 18.4611 90.6233 17.4091C90.0466 16.3229 89.7585 15.0299 89.7593 13.5299C89.7593 12.0477 90.0219 10.7384 90.547 9.60221C91.0321 8.51143 91.8224 7.58366 92.8228 6.93034C93.8207 6.28602 95.0204 5.96387 96.4217 5.96387C97.8047 5.96387 98.9686 6.25841 99.9134 6.8475C100.862 7.44066 101.611 8.30395 102.064 9.32607C102.553 10.3886 102.797 11.6427 102.797 13.0881V14.069H92.7287ZM92.7287 12.1493H99.9753C99.9847 11.4513 99.853 10.7585 99.5881 10.1125C99.348 9.5225 98.9365 9.01777 98.4065 8.66335C97.8755 8.30917 97.2091 8.1317 96.4074 8.13097C95.5879 8.13097 94.9057 8.32905 94.3606 8.72521C93.8238 9.11282 93.4011 9.63737 93.137 10.2439C92.8684 10.8434 92.7293 11.4926 92.7287 12.1493Z" fill="#55E56F"/>
<path d="M104.72 20.5172V6.24108H107.61V8.29773C107.861 7.88722 108.176 7.51923 108.543 7.20755C108.973 6.84553 109.465 6.5648 109.996 6.37915C111.464 5.89188 113.062 5.96827 114.477 6.59343C115.24 6.95043 115.878 7.52754 116.309 8.25023C116.77 9.00058 117.001 9.96926 117 11.1563V20.5172H114.041V11.4744C114.041 10.4516 113.766 9.69202 113.218 9.19572C112.669 8.69941 111.961 8.45089 111.095 8.45015C110.529 8.44792 109.967 8.5459 109.435 8.73954C108.94 8.91267 108.5 9.21558 108.163 9.61654C107.832 10.0341 107.66 10.5556 107.679 11.0878V20.5172H104.72Z" fill="#55E56F"/>
</g>
<defs>
<clipPath id="clip0_108:59">
<rect width="117" height="22.6547" fill="white"/>
</clipPath>
</defs>
</svg>
